# xmcd
#
# Track frame offsets:
#	150
#	24235
#	44564
#	65071
#	83955
#	104698
#	121407
#	136585
#	156328
#	175392
#	194515
#	214223
#	234112
#	255267
#
# Disc length: 3619 seconds
#
# Revision: 0
# Processed by: cddbd v1.5.2PL0 Copyright (c) Steve Scherf et al.
# Submitted via: audiograbber 1.83.01
#
DISCID=c20e210e
DTITLE=No Old Madrigal - Long Songs For You
DYEAR=2007
DGENRE=Ballad
TTITLE0=Understanding Lover
TTITLE1=Late Love To Come
TTITLE2=Good Dream Of Good Man
TTITLE3=The Heart Will Walk With Love Together
TTITLE4=Heart Rain
TTITLE5=Mum Final Outcome
TTITLE6=The Gather
TTITLE7=Pray
TTITLE8=Leave The Sorrow To The Oneself
TTITLE9=Long For The Rains And Winds In
TTITLE10=A Maple Leaf Falling
TTITLE11=In Rain
TTITLE12=When Love Has Already Become A Thing Of The Past
TTITLE13=I Receive Silently Up To Your Eye
EXTD=
EXTT0=
EXTT1=
EXTT2=
EXTT3=
EXTT4=
EXTT5=
EXTT6=
EXTT7=
EXTT8=
EXTT9=
EXTT10=
EXTT11=
EXTT12=
EXTT13=
PLAYORDER=
